<svg width="230" height="131" viewBox="0 0 230 131" fill="none" xmlns="http://www.w3.org/2000/svg">
<path d="M224.403 112.952H223.812L221.503 107.366C221.09 106.373 220.381 105.522 219.466 104.922C218.551 104.322 217.472 104.001 216.367 104H205.284C204.001 103.996 202.756 104.425 201.762 105.212C200.768 105.999 200.087 107.095 199.835 108.315L198.874 112.952H198.542C197.072 112.952 195.662 113.518 194.623 114.526C193.584 115.533 193 116.899 193 118.324V123.695C193 124.17 193.195 124.626 193.541 124.961C193.887 125.297 194.357 125.486 194.847 125.486H196.694C196.694 126.91 197.278 128.277 198.318 129.284C199.357 130.291 200.766 130.857 202.236 130.857C203.706 130.857 205.115 130.291 206.155 129.284C207.194 128.277 207.778 126.91 207.778 125.486H215.167C215.167 126.91 215.751 128.277 216.79 129.284C217.829 130.291 219.239 130.857 220.708 130.857C222.178 130.857 223.588 130.291 224.627 129.284C225.666 128.277 226.25 126.91 226.25 125.486H228.097C228.587 125.486 229.057 125.297 229.404 124.961C229.75 124.626 229.945 124.17 229.945 123.695V118.324C229.945 116.899 229.361 115.533 228.322 114.526C227.282 113.518 225.873 112.952 224.403 112.952ZM213.32 107.581H216.367C216.734 107.584 217.092 107.693 217.394 107.894C217.697 108.095 217.931 108.379 218.067 108.709L219.822 112.952H213.32V107.581ZM203.455 109.013C203.542 108.603 203.774 108.235 204.111 107.973C204.449 107.711 204.87 107.573 205.303 107.581H209.625V112.952H202.643L203.455 109.013ZM202.236 127.276C201.871 127.276 201.514 127.171 201.21 126.974C200.906 126.778 200.669 126.498 200.53 126.171C200.39 125.844 200.353 125.484 200.424 125.136C200.496 124.789 200.672 124.47 200.93 124.22C201.188 123.969 201.517 123.799 201.876 123.73C202.234 123.661 202.606 123.696 202.943 123.832C203.281 123.967 203.569 124.197 203.772 124.491C203.975 124.785 204.083 125.132 204.083 125.486C204.083 125.961 203.889 126.416 203.542 126.752C203.196 127.088 202.726 127.276 202.236 127.276ZM220.708 127.276C220.343 127.276 219.986 127.171 219.682 126.974C219.378 126.778 219.142 126.498 219.002 126.171C218.862 125.844 218.825 125.484 218.897 125.136C218.968 124.789 219.144 124.47 219.402 124.22C219.661 123.969 219.99 123.799 220.348 123.73C220.706 123.661 221.078 123.696 221.415 123.832C221.753 123.967 222.041 124.197 222.244 124.491C222.447 124.785 222.556 125.132 222.556 125.486C222.556 125.961 222.361 126.416 222.015 126.752C221.668 127.088 221.198 127.276 220.708 127.276ZM226.25 121.905H224.809C224.29 121.351 223.657 120.908 222.951 120.605C222.244 120.303 221.481 120.146 220.708 120.146C219.936 120.146 219.173 120.303 218.466 120.605C217.76 120.908 217.127 121.351 216.608 121.905H206.337C205.818 121.351 205.185 120.908 204.478 120.605C203.772 120.303 203.008 120.146 202.236 120.146C201.464 120.146 200.7 120.303 199.994 120.605C199.288 120.908 198.655 121.351 198.135 121.905H196.694V118.324C196.694 117.849 196.889 117.394 197.236 117.058C197.582 116.722 198.052 116.533 198.542 116.533H224.403C224.893 116.533 225.363 116.722 225.709 117.058C226.056 117.394 226.25 117.849 226.25 118.324V121.905Z" fill="black"/>
<path d="M48 2C69.8794 5.46137 85.4017 23.4204 92.3428 35.0195C94.008 37.8022 95.1453 40.8484 96.0986 43.9481L101.659 62.0294C103.545 68.1613 107.982 73.1831 113.835 75.81L114.367 76.049C121.207 79.1188 129.158 78.3589 135.292 74.0493V74.0493C143.075 68.5818 153.542 68.9491 160.922 74.9487L162 75.8254C166.118 79.1727 171.263 81 176.569 81H188" stroke="black" stroke-dasharray="7 7"/>
<path d="M2 10.3862L15.9723 2L29.9447 10.3862" stroke="black" stroke-width="4" stroke-linecap="round" stroke-linejoin="round"/>
<path d="M26.8397 15.7228V25.4812C26.8397 25.9865 26.4227 26.3961 25.9082 26.3961H6.03647C5.52202 26.3961 5.10498 25.9865 5.10498 25.4812V15.7228" stroke="black" stroke-width="4" stroke-linecap="round" stroke-linejoin="round"/>
</svg>
