<svg width="51" height="39" viewBox="0 0 51 39" fill="none" xmlns="http://www.w3.org/2000/svg">
<path d="M49.3269 11.4299H43.4802L41.8552 7.2335C40.1852 2.91904 36.1999 0.131844 31.7009 0.131844H19.2985C14.8004 0.131844 10.8141 2.91904 9.14321 7.2335L7.51821 11.4299H1.6725C0.909802 11.4299 0.350231 12.1704 0.535778 12.934L1.12172 15.355C1.2516 15.8937 1.72035 16.272 2.25844 16.272H4.2184C2.90687 17.4552 2.06215 19.1752 2.06215 21.114V25.9561C2.06215 27.5822 2.66371 29.0499 3.62465 30.1858V35.6401C3.62465 37.4226 5.02407 38.8682 6.74965 38.8682H9.87466C11.6002 38.8682 12.9997 37.4226 12.9997 35.6401V32.4121H37.9997V35.6401C37.9997 37.4226 39.3991 38.8682 41.1247 38.8682H44.2497C45.9753 38.8682 47.3747 37.4226 47.3747 35.6401V30.1858C48.3356 29.0509 48.9372 27.5832 48.9372 25.9561V21.114C48.9372 19.1752 48.0925 17.4552 46.7819 16.272H48.7419C49.28 16.272 49.7487 15.8937 49.8786 15.355L50.4646 12.934C50.6491 12.1704 50.0896 11.4299 49.3269 11.4299ZM14.946 9.63132C15.6579 7.79336 17.3815 6.5879 19.2985 6.5879H31.7009C33.6179 6.5879 35.3415 7.79336 36.0534 9.63132L37.9997 14.658H12.9997L14.946 9.63132ZM9.87466 25.9359C7.99965 25.9359 6.74965 24.6487 6.74965 22.7179C6.74965 20.7872 7.99965 19.5 9.87466 19.5C11.7497 19.5 14.5622 22.3961 14.5622 24.3269C14.5622 26.2577 11.7497 25.9359 9.87466 25.9359ZM41.1247 25.9359C39.2497 25.9359 36.4372 26.2577 36.4372 24.3269C36.4372 22.3961 39.2497 19.5 41.1247 19.5C42.9997 19.5 44.2497 20.7872 44.2497 22.7179C44.2497 24.6487 42.9997 25.9359 41.1247 25.9359Z" fill="black"/>
</svg>
