<svg width="41" height="41" viewBox="0 0 41 41" fill="none" xmlns="http://www.w3.org/2000/svg">
<path d="M18.0062 0.5L15.5125 6.43516C15.0137 6.58479 14.5648 6.83416 14.116 7.08354L8.1808 4.58978L4.58978 8.1808L7.08354 14.116C6.83416 14.6147 6.63466 15.0137 6.43516 15.5125L0.5 18.0062V22.9938L6.43516 25.4875C6.63466 25.9863 6.83416 26.3853 7.08354 26.884L4.58978 32.8192L8.1808 36.4102L14.116 33.9165C14.5648 34.116 15.0137 34.3653 15.5125 34.5648L18.0062 40.5H22.9938L25.4875 34.5648C25.9364 34.3653 26.4352 34.1658 26.884 33.9165L32.8192 36.4102L36.4102 32.8192L33.9165 26.884C34.116 26.4352 34.3653 25.9364 34.5648 25.4875L40.5 22.9938V18.0062L34.5648 15.5125C34.4152 15.0636 34.1658 14.5648 33.9165 14.116L36.4102 8.1808L32.8192 4.58978L26.884 7.08354C26.4352 6.88404 25.9364 6.63466 25.4875 6.43516L22.9938 0.5L18.0062 0.5ZM20.5 12.9688C24.6397 12.9688 27.9813 16.3105 27.9813 20.4501C27.9813 24.5898 24.6397 27.9314 20.5 27.9314C16.3603 27.9314 13.0187 24.5898 13.0187 20.4501C13.0187 16.3105 16.3603 12.9688 20.5 12.9688Z" fill="black"/>
</svg>
