<svg width="54" height="51" viewBox="0 0 54 51" fill="none" xmlns="http://www.w3.org/2000/svg">
<path d="M51.8367 35.7212L35.4131 6.15883C33.2062 2.18125 30.1525 0 26.7908 0C23.4291 0 20.3752 2.18125 18.1683 6.15883L1.74479 35.7212C-0.333811 39.4935 -0.564767 43.1118 1.10325 45.9603C2.77127 48.8087 6.05597 50.3741 10.3672 50.3741H43.2143C47.5255 50.3741 50.8102 48.8087 52.4782 45.9603C54.1462 43.1118 53.9153 39.4678 51.8367 35.7212ZM24.8661 17.9632C24.8661 16.9111 25.7386 16.0386 26.7908 16.0386C27.8429 16.0386 28.7154 16.9111 28.7154 17.9632V30.7941C28.7154 31.8463 27.8429 32.7188 26.7908 32.7188C25.7386 32.7188 24.8661 31.8463 24.8661 30.7941V17.9632ZM28.6128 40.3147C28.4845 40.4173 28.3561 40.52 28.2278 40.6226C28.0739 40.7253 27.9199 40.8022 27.7659 40.8536C27.6119 40.9305 27.458 40.9819 27.2783 41.0075C27.1244 41.0332 26.9447 41.0589 26.7908 41.0589C26.6368 41.0589 26.4572 41.0332 26.2775 41.0075C26.1236 40.9819 25.9696 40.9305 25.8156 40.8536C25.6617 40.8022 25.5077 40.7253 25.3537 40.6226C25.2254 40.52 25.0971 40.4173 24.9688 40.3147C24.5069 39.8271 24.2246 39.1599 24.2246 38.4927C24.2246 37.8255 24.5069 37.1583 24.9688 36.6707L25.3537 36.3628C25.5077 36.2601 25.6617 36.1831 25.8156 36.1318C25.9696 36.0548 26.1236 36.0035 26.2775 35.9778C26.6111 35.9008 26.9704 35.9008 27.2783 35.9778C27.458 36.0035 27.6119 36.0548 27.7659 36.1318C27.9199 36.1831 28.0739 36.2601 28.2278 36.3628L28.6128 36.6707C29.0747 37.1583 29.357 37.8255 29.357 38.4927C29.357 39.1599 29.0747 39.8271 28.6128 40.3147Z" fill="#292D32"/>
</svg>
