<svg width="28" height="58" viewBox="0 0 28 58" fill="none" xmlns="http://www.w3.org/2000/svg">
<path d="M0 35.3043V55.4783C0 55.4783 0 58 2.52174 58C5.04348 58 25.2174 58 25.2174 58C25.2174 58 27.7391 58 27.7391 55.4783C27.7391 52.9565 27.7391 55.4783 27.7391 35.3043C27.7391 15.1304 17.6522 12.6087 17.6522 12.6087H10.087C10.087 12.6087 0 15.1304 0 35.3043ZM17.1302 15.7306C19.1223 15.1077 21.75 17.8312 23.0008 21.8206C24.249 25.8075 23.6463 29.5447 21.6517 30.1726C19.6595 30.7955 17.0318 28.072 15.781 24.0826C14.5328 20.0957 15.1355 16.356 17.1302 15.7306Z" fill="black"/>
<path d="M17.6522 2.52174C17.6522 2.52174 17.6522 0 15.1305 0C12.6087 0 12.6087 0 12.6087 0C12.6087 0 10.087 0 10.087 2.52174C10.087 5.04348 10.087 10.087 10.087 10.087H17.6522V2.52174Z" fill="black"/>
</svg>
