<svg width="53" height="53" viewBox="0 0 53 53" fill="none" xmlns="http://www.w3.org/2000/svg">
<path d="M42.0188 15.2053L30.574 3.76044C30.247 3.43344 29.92 3.26994 29.4295 3.26994H13.0798C11.2813 3.26994 9.80981 4.74142 9.80981 6.53989V45.7793C9.80981 47.5777 11.2813 49.0492 13.0798 49.0492H39.2393C41.0378 49.0492 42.5093 47.5777 42.5093 45.7793V16.3497C42.5093 15.8592 42.3458 15.5322 42.0188 15.2053ZM29.4295 7.19388L38.5854 16.3497H29.4295V7.19388ZM39.2393 45.7793H13.0798V6.53989H26.1596V16.3497C26.1596 18.1482 27.631 19.6197 29.4295 19.6197H39.2393V45.7793Z" fill="black"/>
<path d="M16.3497 35.9694H35.9694V39.2394H16.3497V35.9694Z" fill="black"/>
<path d="M16.3497 26.1596H35.9694V29.4295H16.3497V26.1596Z" fill="black"/>
</svg>
