<svg width="48" height="48" viewBox="0 0 48 48" fill="none" xmlns="http://www.w3.org/2000/svg">
<path d="M46.9202 15.3722C46.4015 14.1862 45.6617 13.1219 44.7191 12.2071C43.7741 11.2947 42.6788 10.5756 41.4546 10.0745C40.1866 9.55506 38.8415 9.29176 37.4566 9.29176C36.0701 9.29176 34.7242 9.55506 33.4586 10.0745C32.2352 10.5756 31.1367 11.2939 30.194 12.2071C29.2498 13.1219 28.5101 14.1862 27.993 15.3722C27.4569 16.5996 27.184 17.905 27.184 19.2477V37.77C27.184 41.6916 23.8948 44.8822 19.8491 44.8822C15.8042 44.8822 12.5126 41.6908 12.5126 37.77V29.2355H14.8305C15.3182 29.2355 15.7119 28.8545 15.7119 28.382V25.2224C18.2478 23.7039 19.9374 20.9842 19.9374 17.8827V14.2968H21.2141C21.6993 14.2968 22.0939 13.9158 22.0939 13.4433V10.1151C22.0939 9.72051 21.8187 9.38801 21.4448 9.29096H16.2846V0.853528C16.287 0.382616 15.8925 0 15.4057 0H14.2324C13.7447 0 13.3518 0.382616 13.3518 0.853528V9.29096H8.74448V0.853528C8.74448 0.382616 8.34994 0 7.86391 0H6.68981C6.20458 0 5.81003 0.382616 5.81003 0.853528V9.29096H0.650686C0.275229 9.38881 0 9.72131 0 10.1159V13.4433C0 13.9158 0.394548 14.2968 0.878982 14.2968H2.15649V17.8827C2.15649 20.985 3.84445 23.7031 6.38197 25.2224V28.382C6.38197 28.8545 6.77493 29.2355 7.26095 29.2355H9.57972V37.77C9.57972 39.1143 9.85256 40.4181 10.3871 41.6463C10.9057 42.8331 11.6455 43.8982 12.5881 44.8114C13.5324 45.7262 14.6285 46.4429 15.8527 46.9456C17.1191 47.465 18.4658 47.7276 19.8507 47.7276C21.2356 47.7276 22.5839 47.465 23.8487 46.9456C25.0721 46.4429 26.1706 45.727 27.1124 44.8114C28.0574 43.899 28.7964 42.8339 29.3143 41.6463C29.8504 40.4181 30.1224 39.1143 30.1224 37.77V19.2477C30.1224 15.3269 33.4117 12.1355 37.4582 12.1355C41.5031 12.1355 44.7947 15.3277 44.7947 19.2477V47.7276H47.7276V19.2477C47.7276 17.905 47.4547 16.5996 46.9202 15.3722Z" fill="black"/>
</svg>
