<svg width="30" height="44" viewBox="0 0 30 44" fill="none" xmlns="http://www.w3.org/2000/svg">
<path fill-rule="evenodd" clip-rule="evenodd" d="M27.6901 40.9756C26.1966 42.8373 24.7788 44 23.7356 44C21.1821 44 20.1243 43.226 19.2481 42.5848C18.6285 42.1314 18.0997 41.7444 17.1969 41.7444C16.294 41.7444 15.7652 42.1314 15.1456 42.5848C14.2694 43.226 13.2117 44 10.6581 44C9.53145 44 7.96798 42.6439 6.34402 40.5159C8.76451 37.7693 10.3691 32.9587 10.3691 27.4832C10.3691 20.4163 7.69623 14.4569 4.04611 12.6132C7.76583 10.3605 11.936 10.8279 15.0173 12.4222V5.65553V1.14441H19.3764V12.4222C22.362 10.8774 26.3701 10.3906 30 12.4112C26.1246 13.9803 23.2329 20.1327 23.2329 27.4832C23.2329 33.2784 25.0303 38.3288 27.6901 40.9756ZM0 2.90375C0 2.90375 2.76806 12.5801 15.0173 5.65553C5.79767 -5.1937 0 2.90375 0 2.90375Z" fill="black"/>
</svg>
