<svg width="24" height="24" viewBox="0 0 24 24" fill="none" xmlns="http://www.w3.org/2000/svg">
<path d="M0 2C0 1.46957 0.158036 0.96086 0.43934 0.585787C0.720645 0.210714 1.10218 0 1.5 0H22.5C22.8978 0 23.2794 0.210714 23.5607 0.585787C23.842 0.96086 24 1.46957 24 2C24 2.53043 23.842 3.03914 23.5607 3.41421C23.2794 3.78929 22.8978 4 22.5 4H1.5C1.10218 4 0.720645 3.78929 0.43934 3.41421C0.158036 3.03914 0 2.53043 0 2ZM0 12C0 11.4696 0.158036 10.9609 0.43934 10.5858C0.720645 10.2107 1.10218 10 1.5 10H22.5C22.8978 10 23.2794 10.2107 23.5607 10.5858C23.842 10.9609 24 11.4696 24 12C24 12.5304 23.842 13.0391 23.5607 13.4142C23.2794 13.7893 22.8978 14 22.5 14H1.5C1.10218 14 0.720645 13.7893 0.43934 13.4142C0.158036 13.0391 0 12.5304 0 12ZM0 22C0 21.4696 0.158036 20.9609 0.43934 20.5858C0.720645 20.2107 1.10218 20 1.5 20H22.5C22.8978 20 23.2794 20.2107 23.5607 20.5858C23.842 20.9609 24 21.4696 24 22C24 22.5304 23.842 23.0391 23.5607 23.4142C23.2794 23.7893 22.8978 24 22.5 24H1.5C1.10218 24 0.720645 23.7893 0.43934 23.4142C0.158036 23.0391 0 22.5304 0 22Z" fill="#344E41"/>
</svg>
