<svg width="41" height="48" viewBox="0 0 41 48" fill="none" xmlns="http://www.w3.org/2000/svg">
<path d="M6.41636 13.613L10.1875 9.97272L13.9586 13.613C15.1509 14.7638 15.747 15.3392 16.061 16.071C16.375 16.8027 16.375 17.6165 16.375 19.2441V43.8181H12.25C8.36091 43.8181 6.41636 43.8181 5.20819 42.6519C4 41.4856 4 39.6086 4 35.8545V19.2441C4 17.6165 4 16.8027 4.31399 16.071C4.62799 15.3392 5.22411 14.7638 6.41636 13.613Z" stroke="#141B34" stroke-width="6.81821"/>
<path d="M10.1875 9.98026V9.18489C10.1875 6.74782 10.1875 5.52929 10.9728 4.77219C11.7581 4.01509 13.0221 4.01509 15.55 4.01509H27.0041C28.461 4.01509 30.3515 3.79073 31.3254 5.07242C32.3598 6.43374 31.4758 8.30453 31.9238 9.80916C32.0601 10.2666 32.3967 10.6199 32.7067 10.9785L37 15.9454" stroke="#141B34" stroke-width="6.81821" stroke-linecap="round"/>
<path d="M16.375 15.9454H37V35.8545C37 39.6085 37 41.4856 35.7918 42.6518C34.5836 43.8181 32.639 43.8181 28.75 43.8181H16.375" stroke="#141B34" stroke-width="6.81821" stroke-linejoin="round"/>
<path d="M16.375 25.9C17.3572 26.8954 19.9708 26.8478 21.5042 26.4552C22.5736 26.1817 23.7257 26.5026 24.4505 27.4208L25.8677 29.2164C26.683 30.2493 27.9186 30.7397 29.1359 30.5135L30.9294 30.1802C31.9163 29.9969 32.8977 30.4599 33.5694 31.2864C35.6639 33.8636 37 33.8636 37 33.8636" stroke="#141B34" stroke-width="6.81821" stroke-linejoin="round"/>
</svg>
