<svg width="31" height="43" viewBox="0 0 31 43" fill="none" xmlns="http://www.w3.org/2000/svg">
<path d="M21.9646 20.0086C22.0578 20.201 22.0578 20.4897 22.4304 20.4416C24.9454 20.3935 27.4138 20.3935 29.9288 20.3454C30.1617 20.3454 30.2548 20.2492 30.2548 20.0086C30.2082 18.854 30.3014 17.6994 30.0219 16.5928C29.3233 13.9468 28.5781 11.3008 27.9261 8.6548C27.7864 8.02937 27.5535 7.88505 26.9946 7.93316C24.0139 8.07748 21.0797 8.1737 18.099 8.31803C14.9785 8.46236 11.9047 8.55858 8.78421 8.7029C8.59792 8.7029 8.41162 8.75101 8.2719 8.79912C7.99245 8.84723 7.80616 9.03967 7.75958 9.32833C7.71301 9.66509 7.85273 9.90564 8.0856 10.0981C8.2719 10.1943 8.50477 10.2905 8.73764 10.3386C11.9047 11.0603 15.0717 11.7819 18.2387 12.4554C19.1236 12.6479 19.6359 13.129 19.962 13.9949C20.5674 16.0155 21.266 17.988 21.9646 20.0086ZM30.4877 41.2248L30.348 22.9914C30.348 22.6546 30.3014 22.5103 29.9288 22.5103C27.5069 22.4622 25.1317 22.366 22.7098 22.3179C22.3838 22.2697 22.2441 22.4141 22.1975 22.7508C22.0578 23.9536 21.8715 25.1563 21.7318 26.359C21.2195 29.9672 20.7071 33.5755 20.2414 37.1837C20.0551 38.5307 19.8688 39.9259 19.6825 41.2729C19.6359 41.4173 19.5428 41.6097 19.7291 41.6578C19.9154 41.7059 20.0551 41.6578 20.1483 41.4654L20.3346 41.1767C21.0797 39.7334 21.8715 38.2902 22.6633 36.895C23.781 34.8744 24.8988 32.8538 26.0632 30.737C26.1563 31.0738 26.2495 31.2662 26.3426 31.5067C27.5069 34.7301 28.6713 37.9534 29.8356 41.2248C29.8822 41.4173 29.9288 41.7059 30.2548 41.6578C30.5808 41.6578 30.4877 41.3692 30.4877 41.2248ZM25.2714 6.34555C26.8083 6.29744 28.1124 4.99848 28.1124 3.41087C28.1124 1.77516 26.8549 0.428093 25.2714 0.428093C23.6879 0.428093 22.4304 1.72705 22.4304 3.36276C22.4304 4.99848 23.6879 6.34555 25.2714 6.34555ZM4.21996 22.6065C5.24459 24.1941 4.82543 24.0498 6.54866 23.28C7.99245 22.6546 9.01708 21.5481 9.99514 20.2973C10.554 19.5275 11.0663 18.7097 11.9512 18.2767C12.1375 18.1805 12.091 17.988 12.091 17.8437C11.9047 16.7853 11.5787 15.7269 10.88 14.8609C10.228 14.043 9.85541 13.9949 8.97051 14.5722C7.99245 15.2458 7.38699 16.208 6.68838 17.122C5.9432 18.1805 5.01172 18.9502 3.8008 19.3351C3.42821 19.4313 3.28848 19.6237 3.33506 19.9605C3.38163 20.9708 3.66108 21.8368 4.21996 22.6065ZM4.49941 20.0086C5.85005 19.4794 6.78153 18.5172 7.61986 17.3626C8.13218 16.5928 8.69106 15.8712 9.43625 15.2939C9.76227 15.0533 9.99514 15.0533 10.228 15.4382C10.4143 15.7269 10.6472 16.0155 10.7869 16.3523C11.2526 17.4107 11.2061 17.4588 10.4609 18.3248C9.85541 19.0464 9.24995 19.8643 8.59792 20.5859C7.85273 21.5 6.92125 22.2697 5.80348 22.7027C5.66376 22.7508 5.47746 22.8952 5.33774 22.7027C4.77885 22.0292 4.35969 21.2595 4.17339 20.2492C4.17339 20.1529 4.31311 20.0567 4.49941 20.0086ZM14.3265 25.2525C12.1375 25.3006 9.94856 25.2525 7.75958 25.2525C5.52403 25.2525 3.28848 25.3006 1.05293 25.2525C0.633768 25.2525 0.400898 25.3006 0.54062 25.8298C0.680342 26.359 0.726916 26.9364 0.820064 27.5137C1.61182 32.3246 2.40358 37.1837 3.14876 41.9946C3.19534 42.4757 3.38163 42.5719 3.75422 42.5238C6.36237 42.5238 8.92393 42.5238 11.4855 42.5719C12.0444 42.5719 12.2307 42.3795 12.3238 41.8503L14.8388 25.8298C14.932 25.2525 14.7457 25.2525 14.3265 25.2525ZM3.14876 36.1252H2.96247C2.86932 35.6923 2.77617 35.2112 2.7296 34.7301C2.68302 34.7301 2.68302 34.682 2.68302 34.6339H3.14876V36.1252ZM3.14876 33.383H2.49673C2.40358 32.95 2.357 32.517 2.26386 32.0841V31.8916H3.14876V33.383ZM3.14876 30.6408H2.03099C1.98441 30.5927 1.98441 30.4965 1.98441 30.4002C1.98441 30.2559 1.98441 30.1116 1.93784 29.9672C1.89127 29.5824 1.84469 29.3418 1.89127 29.1975H3.14876V30.6408ZM3.14876 27.7542C3.14876 27.8504 3.14876 27.8985 3.10219 27.9467H1.61182C1.56525 27.3693 1.33238 26.8401 1.42553 26.2628H3.14876V27.7542ZM5.19802 41.3692H4.03367V40.1183H5.19802V41.3692ZM5.19802 38.8194V38.8675H4.03367V37.3761H5.19802V38.8194ZM5.19802 36.1252H4.03367V34.6339H5.19802V36.1252ZM5.19802 33.383H4.03367V31.8916H5.19802V33.383ZM5.19802 30.6408H4.03367V29.1975H5.19802V30.6408ZM5.19802 27.9467H4.03367V26.2628H5.19802V27.9467ZM7.24727 41.3692H6.08292V40.1183H7.24727V41.3692ZM7.24727 38.8675H6.08292V37.3761H7.24727V38.8675ZM7.24727 36.1252H6.08292V34.6339H7.24727V36.1252ZM7.24727 33.383H6.08292V31.8916H7.24727V33.383ZM7.24727 30.6408H6.08292V29.1975H7.24727V30.6408ZM7.24727 27.9467H6.08292V26.359C6.08292 26.359 6.08292 26.3109 6.1295 26.2628H7.24727V27.9467ZM9.3431 41.3692H8.13218V40.1183H9.29653L9.3431 40.1664V41.3692ZM9.3431 38.7232C9.29653 38.7713 9.29653 38.8194 9.29653 38.8675H8.13218V37.3761H9.29653L9.3431 37.4242V38.7232ZM9.3431 36.1252H8.13218V34.6339H9.3431V36.1252ZM9.3431 33.383H8.13218V31.8916H9.3431V33.383ZM9.3431 30.5927L9.29653 30.6408H8.13218V29.1975H9.29653C9.3431 29.2456 9.3431 29.2456 9.3431 29.2937V30.5927ZM9.3431 27.9467H8.13218V26.2628H9.3431V27.9467ZM11.3924 41.3692H10.1814V40.3589C10.228 40.2627 10.2746 40.2145 10.3212 40.1183H11.3924V41.3692ZM11.3924 38.8675H10.1814V37.3761H11.3924V38.8675ZM11.3924 36.1252H10.1814V34.8263C10.228 34.7301 10.228 34.682 10.228 34.6339H11.3924V36.1252ZM11.3924 33.383H10.1814V31.8916H11.3924V33.383ZM11.3924 30.6408H10.1814V29.1975H11.3924V30.6408ZM11.3924 27.9467H10.1814V26.2628H11.3924V27.9467ZM12.6964 34.7782C12.6033 35.2593 12.5101 35.6923 12.4636 36.1252H12.2307V34.6339H12.6964V34.7782ZM13.069 32.2765C13.0224 32.6133 12.9759 32.9019 12.9293 33.2387V33.383H12.2307V31.8916H13.1622C13.1622 32.0359 13.1156 32.1803 13.069 32.2765ZM13.5348 29.2937L13.395 30.4483C13.3485 30.5446 13.3485 30.5927 13.3019 30.6408H12.2307V29.438C12.2773 29.3899 12.2773 29.2937 12.3238 29.1975H13.5348V29.2937ZM13.9539 26.9364C13.9073 27.0807 13.9073 27.2731 13.8608 27.4174C13.8142 27.658 13.8142 27.8504 13.7676 27.9948H12.2307V26.4072C12.2307 26.359 12.2773 26.3109 12.2773 26.2628H14.0005C14.0471 26.4072 14.0005 26.5996 13.9539 26.9364Z" fill="black"/>
</svg>
