<svg width="41" height="43" viewBox="0 0 41 43" fill="none" xmlns="http://www.w3.org/2000/svg">
<path d="M12.69 23.2781L16.7527 25.7021L11.3987 15.8972L0.5 16.0094L4.56535 18.4321L1.30267 24.2684C0.972002 24.8592 0.624001 25.8164 1.10667 26.6814L6.64536 36.5889C7.63736 38.3642 9.36537 38.3539 10.6167 38.3539H19.4687V27.7357H10.198L12.69 23.2781Z" fill="black"/>
<path d="M39.5449 21.938L35.1182 14.0192L26.2161 19.3273L30.8508 27.62L25.8688 27.6193V22.7754L20.3268 32.4667L25.8715 42.1593L25.8701 37.312H32.3922C33.0535 37.312 34.0308 37.1446 34.5135 36.2811L40.0515 26.3735C41.0429 24.5968 40.1709 23.0577 39.5449 21.938Z" fill="black"/>
<path d="M20.8755 8.44605L23.3655 12.9043L19.3035 15.3284L30.2015 15.4392L35.5555 5.63294L31.4922 8.05766L28.2315 2.22277C27.9002 1.63122 27.2708 0.84066 26.3061 0.84066H15.2308C13.2454 0.84066 12.3901 2.39149 11.7654 3.51122L7.33875 11.4299L16.2408 16.7387L20.8755 8.44605Z" fill="black"/>
</svg>
