<svg width="22" height="21" viewBox="0 0 22 21" fill="none" xmlns="http://www.w3.org/2000/svg">
<path d="M21.6617 18.1558L17.5722 14.067C17.3876 13.8824 17.1374 13.7799 16.8749 13.7799H16.2063C17.3384 12.3322 18.0111 10.5113 18.0111 8.53042C18.0111 3.81818 14.1922 0 9.4792 0C4.76616 0 0.947327 3.81818 0.947327 8.53042C0.947327 13.2427 4.76616 17.0608 9.4792 17.0608C11.4604 17.0608 13.2816 16.3882 14.7296 15.2563V15.9248C14.7296 16.1873 14.8321 16.4375 15.0167 16.622L19.1063 20.7109C19.4918 21.0964 20.1153 21.0964 20.4968 20.7109L21.6576 19.5502C22.0432 19.1647 22.0432 18.5414 21.6617 18.1558ZM9.4792 13.7799C6.57918 13.7799 4.22882 11.434 4.22882 8.53042C4.22882 5.6309 6.57508 3.28093 9.4792 3.28093C12.3792 3.28093 14.7296 5.62679 14.7296 8.53042C14.7296 11.4299 12.3833 13.7799 9.4792 13.7799Z" fill="#344E41"/>
</svg>
