<svg width="45" height="51" viewBox="0 0 45 51" fill="none" xmlns="http://www.w3.org/2000/svg">
<path fill-rule="evenodd" clip-rule="evenodd" d="M31.1912 11.4251L25.4981 13.8145L25.7858 18.6719L19.6174 20.4412L18.387 26.2252L13.3155 25.9425L11.9663 30.0307L6.23092 30.2391L5.03485 31.6108C6.06592 35.761 39.8531 36.2408 39.9398 31.6891C39.9821 29.4856 30.5109 28.3262 21.4211 28.3329L22.0473 25.2983C31.4485 25.4469 41.0311 27.0608 44.6909 30.2571L43.2909 34.3724L43.3456 46.8708L44.2336 50.7563L1.34754 50.6161L2.16182 47.1771L1.90109 34.0807L0.0337858 29.7261L0 29.6726L3.77177 24.4406L3.12137 19.5628L7.90845 17.1402L9.00372 12.2732L14.0712 10.6176L15.8118 5.26911L20.2819 5.03598L26.2121 0L27.6188 2.53911L32.4644 2.25867L29.1972 7.64885L31.1912 11.4251Z" fill="black"/>
</svg>
