<svg width="43" height="54" viewBox="0 0 43 54" fill="none" xmlns="http://www.w3.org/2000/svg">
<path d="M3.58333 51.0625C3.57796 51.7688 3.85291 52.4483 4.34788 52.9521C4.84286 53.4559 5.51745 53.7429 6.22369 53.75H36.7763C37.4825 53.7429 38.1571 53.4559 38.6521 52.9521C39.1471 52.4483 39.422 51.7688 39.4167 51.0625V15.2292H3.58333V51.0625ZM7.16666 18.8125H35.8333V50.1667H7.16666V18.8125Z" fill="black"/>
<path d="M15.2292 22.3958H11.6458V44.7917H15.2292V22.3958Z" fill="black"/>
<path d="M23.2917 22.3958H19.7083V44.7917H23.2917V22.3958Z" fill="black"/>
<path d="M31.3542 22.3958H27.7708V44.7917H31.3542V22.3958Z" fill="black"/>
<path d="M29.5625 8.0625V2.6875C29.5625 1.18048 28.5 0 27.1437 0H15.8563C14.5 0 13.4375 1.18048 13.4375 2.6875V8.0625H0V11.6458H43V8.0625H29.5625ZM17.0208 3.58333H25.9792V8.0625H17.0208V3.58333Z" fill="black"/>
</svg>
