<svg width="37" height="45" viewBox="0 0 37 45" fill="none" xmlns="http://www.w3.org/2000/svg">
<path d="M30.6938 44.037H6.00499L0 0H36.6909L30.6938 44.037ZM7.75456 42.0354H28.9444L34.397 2.00166H2.30197L7.75456 42.0354ZM26.8685 16.2977C23.8986 16.2494 21.0713 15.7017 18.4465 14.7353L18.6237 14.7924C14.5722 13.5214 11.0733 12.4245 3.32686 15.3089L2.62825 13.4333C11.0173 10.3087 15.1888 11.6178 19.2222 12.8829C21.5716 13.7877 24.2897 14.3118 27.1304 14.3118C29.3934 14.3118 31.5788 13.9791 33.6403 13.36L33.4803 13.4013L33.9626 15.343C31.8421 15.9218 29.4024 16.2684 26.8862 16.2976L26.8686 16.2977L26.8685 16.2977Z" fill="black"/>
</svg>
