<svg width="20" height="62" viewBox="0 0 20 62" fill="none" xmlns="http://www.w3.org/2000/svg">
<path d="M7.77691 20.8444V2.22198H12.2209V20.8444C13.0119 21.0422 13.7518 21.3532 14.4429 21.751V1.66649C14.4429 1.05322 13.9451 0 13.3319 0H6.66592C6.05266 0 5.55493 1.05322 5.55493 1.66649V21.7488C6.24597 21.3532 6.98589 21.0422 7.77691 20.8444Z" fill="black"/>
<path d="M15.9249 61.66H4.07503C1.8286 61.66 0.00213623 59.8335 0.00213623 57.5871V29.3524C0.00213623 23.8885 4.4461 19.4423 9.91218 19.4423C15.556 19.4423 20 23.8863 20 29.3524V57.5871C19.9977 59.8335 18.1713 61.66 15.9249 61.66ZM10.0877 21.6643C5.67041 21.6643 2.2219 25.1128 2.2219 29.3524V57.5871C2.2219 58.607 3.05292 59.438 4.07281 59.438H15.9226C16.9425 59.438 17.7735 58.607 17.7735 57.5871V29.3524C17.7758 25.1128 14.3273 21.6643 10.0877 21.6643Z" fill="black"/>
<path d="M5.55493 4.44397H12.2209V6.66595H5.55493V4.44397Z" fill="black"/>
<path d="M6.66595 53.3275H1.11099C0.497724 53.3275 0 52.8298 0 52.2166C0 51.6033 0.497724 51.1056 1.11099 51.1056H5.55496V35.5517H1.11099C0.497724 35.5517 0 35.054 0 34.4407C0 33.8274 0.497724 33.3297 1.11099 33.3297H6.66595C7.27921 33.3297 7.77694 34.3829 7.77694 34.9962V52.7721C7.77694 53.3853 7.27921 53.3275 6.66595 53.3275Z" fill="black"/>
</svg>
